<svg xmlns="http://www.w3.org/2000/svg" version="1.1" xmlns:xlink="http://www.w3.org/1999/xlink" xmlns:svgjs="http://svgjs.dev/svgjs" viewBox="0 0 7.866307656809639 7.988882259353874"><g transform="matrix(1,0,0,1,1.9653320905572609,3.1576862997832613)"><g><path d=" M -0.5170561092668787 -0.0013932301608323358 L -1.1602815240585378 -0.301994404087512 L -1.044698255774054 -0.5493191058313471 Q -0.9947391874313101 -0.6562213578671441 -0.9180476373893737 -0.7081338433804111 Q -0.8413560873474373 -0.7600463288936782 -0.7512800402562274 -0.762655110299262 Q -0.6612039931650173 -0.7652638917048458 -0.5724207668979996 -0.7237724620642618 Q -0.4745780277465923 -0.6780472130725979 -0.42094242078378175 -0.6038618259284243 Q -0.3673068138209712 -0.5296764387842507 -0.36152720290585105 -0.4381185549201628 Q -0.3557475919907309 -0.3465606710560748 -0.4014728409823949 -0.2487179319046675 L -0.5170561092668787 -0.0013932301608323358 M -0.6562503900493835 -0.5443941069533484 Q -0.7060777109135261 -0.5676801133842884 -0.7517189461507948 -0.5680373892109302 Q -0.7973601813880635 -0.568394665037572 -0.8334388106860475 -0.5455182031612535 Q -0.8695174399840315 -0.5226417412849351 -0.8906865367394314 -0.47734417686298725 L -0.9237103276778554 -0.4066799763647486 L -0.5885083509554414 -0.25002866037478877 L -0.5554845600170175 -0.3206928608730274 Q -0.5338920813265096 -0.36689637658341423 -0.5406048535527105 -0.40921881376558916 Q -0.5473176257789114 -0.4515412509477641 -0.5777762987705152 -0.48674805767019425 Q -0.6082349717621188 -0.5219548643926244 -0.6562503900493835 -0.5443941069533484 M -0.1820276688857745 -0.6631570177400549 L -0.7188531472457907 -1.127827229593085 L -0.5054975288456671 -1.374313294304867 Q -0.47146534431558607 -1.4136300899030654 -0.42679094379855276 -1.4331543808874698 Q -0.3821165432815194 -1.452678671871874 -0.3343323865757764 -1.4536401124165754 Q -0.2865482298700334 -1.4546015529612768 -0.24182703303162673 -1.439036703031371 Q -0.19710583619322009 -1.4234718531014654 -0.16308168615631763 -1.394020924181203 Q -0.1320819050115843 -1.3671878556094081 -0.11120398158138106 -1.333245075622457 Q -0.09032605815117795 -1.2993022956355058 -0.08156185012903594 -1.2612965242613499 Q -0.07279764210689388 -1.2232907528871937 -0.07635040376466373 -1.1840431047461513 L 0.21915942951691197 -1.1266415504649703 L 0.07910390087388602 -0.9648378147339232 L -0.1675323396389482 -1.0129996758451323 L -0.21923508152118676 -0.9532683902247925 L -0.0544069768979705 -0.8105950012332988 L -0.1820276688857745 -0.6631570177400549 M -0.34777075943837377 -1.064527455034673 L -0.2672715537229897 -1.1575267984688729 Q -0.2594179726775864 -1.1665999051453801 -0.25902368672668047 -1.1808071053828977 Q -0.25862940077577456 -1.1950143056204152 -0.2665744804141162 -1.2118109037742204 Q -0.2745195600524578 -1.2286075019280256 -0.29266577340547245 -1.2443146640188323 Q -0.3115680789815294 -1.2606762911967557 -0.329606553902221 -1.2650481812383259 Q -0.34764502882291254 -1.2694200712798962 -0.3626306724192548 -1.2658591042759202 Q -0.37761631601559714 -1.2622981372719444 -0.38546989706100043 -1.2532250305954369 L -0.46269677734079984 -1.1640061482764483 L -0.34777075943837377 -1.064527455034673 M 0.29894755412181556 -1.1693054678651218 L -0.13503530628914123 -1.7312297304392912 L 0.019296005262919386 -1.8504222061859625 L 0.4532788656738762 -1.2884979436117932 L 0.29894755412181556 -1.1693054678651218 M 0.3772286563189664 -2.0786142635051412 L 0.7165404678280775 -1.7052330982458241 L 0.6247209018005206 -2.200776403411489 L 0.8085466638429796 -2.2915127754433775 L 0.9031101391709724 -1.5464069110630922 L 0.7291481985064016 -1.4605393199695 L 0.19250618324215407 -1.9874352750243165 L 0.3772286563189664 -2.0786142635051412 M 1.6642264465419778 -1.9383778546728847 L 1.6989396283087075 -1.7719597216115204 L 1.2036009499025284 -1.6686369570587838 L 1.0586223672297164 -2.3636773951386 L 1.5451506738855878 -2.4651624030095682 L 1.5798638556523175 -2.298744269948204 L 1.2842269369197759 -2.237077323515543 L 1.3046464556060875 -2.1391843040676815 L 1.5572104457815699 -2.1918666622783656 L 1.5894732853059421 -2.0371956915507443 L 1.3369092951304598 -1.9845133333400606 L 1.3597791560591286 -1.8748731515584558 L 1.6642264465419778 -1.9383778546728847 M 2.263196956058576 -2.241235036240794 Q 2.263196956058576 -2.241235036240794 2.246575026817771 -2.251851601990304 Q 2.2299530975769657 -2.2624681677398137 2.202430224410344 -2.2759863574357033 Q 2.1749073512437223 -2.289504547131593 2.1422961796547924 -2.3007077380876266 Q 2.109685008065862 -2.3119109290436604 2.077706523369612 -2.3130841794567085 Q 2.0527233322006673 -2.3140007813419023 2.0364407772492803 -2.306592785374364 Q 2.0201582222978933 -2.2991847894068256 2.019461604865146 -2.280197564118427 Q 2.0188016515078067 -2.2622096664767866 2.0343875890264465 -2.2506304371559267 Q 2.049973526545086 -2.239051207835067 2.0791237154457716 -2.228975668789718 Q 2.108273904346457 -2.218900129744369 2.148769704883226 -2.2044056432448 Q 2.2139920480610864 -2.181999261332732 2.2610065091448597 -2.154256866897457 Q 2.308020970228633 -2.1265144724621825 2.332518593990322 -2.0850884368078897 Q 2.3570162177520113 -2.043662401153597 2.354559724699692 -1.976707448820824 Q 2.352213223873596 -1.9127504794283243 2.3276338007179294 -1.8701230005287381 Q 2.3030543775622627 -1.8274955216291517 2.263127333378107 -1.802942901754351 Q 2.223200289193951 -1.7783902818795503 2.174810925282387 -1.7686578895614073 Q 2.1264215613708233 -1.7589254972432646 2.076455179032933 -1.760758701013652 Q 2.025489469048285 -1.7626285688594474 1.970411757445008 -1.7751563653355344 Q 1.915334045841731 -1.7876841618116215 1.8640472936053685 -1.8080782551978438 Q 1.812760541369006 -1.8284723485840662 1.770706054443614 -1.8550320949955446 L 1.860919133665995 -2.0228373402568787 Q 1.860919133665995 -2.0228373402568787 1.880465717696258 -2.01011212698763 Q 1.9000123017265211 -1.9973869137183813 1.9324401529384125 -1.9811870845285584 Q 1.964868004150304 -1.9649872553387355 2.004900804939102 -1.951510428523628 Q 2.0449336057279 -1.9380336017085205 2.0859060392449704 -1.9365303746168028 Q 2.11788452394122 -1.9353571242037548 2.1306877641666584 -1.9433931082585993 Q 2.143491004392097 -1.9514290923134439 2.1440043014478056 -1.9654196793680532 Q 2.144774247031368 -1.986405559949967 2.1232106756698856 -1.9987044375466523 Q 2.101647104308403 -2.0110033151433377 2.066555945640282 -2.0227978301112697 Q 2.0314647869721614 -2.0345923450792016 1.9890069952172842 -2.050159487376344 Q 1.927818626701863 -2.0734185406335386 1.8888171188298561 -2.1013672862889305 Q 1.8498156109578492 -2.129316031944322 1.8321666244218338 -2.1664881084837293 Q 1.8145176378858183 -2.2036601850231365 1.8164241698070211 -2.2556252226545426 Q 1.8193206317642334 -2.3345721067484093 1.858238950690883 -2.386179901236486 Q 1.8971572696175325 -2.4377876957245634 1.958624854320093 -2.463051029448234 Q 2.0200924390226533 -2.488314363171905 2.0900453742956997 -2.4857478778933624 Q 2.1420104119271057 -2.4838413459721593 2.1900195018522624 -2.469571542730411 Q 2.238028591777419 -2.4553017394886627 2.2798400634072866 -2.435755618642193 Q 2.321651535037154 -2.4162094977957227 2.3530433945268796 -2.39904700503455 L 2.263196956058576 -2.241235036240794 M 2.9694057739835973 -1.577749598086434 L 3.09000900024851 -1.9317705887275178 L 2.8925567371630527 -1.7211937528636665 L 2.7941123975195428 -1.754730478883856 L 2.766278575651583 -2.0420548223708335 L 2.6456753493866705 -1.6880338317297499 L 2.4610922125550894 -1.7509151930176055 L 2.690044861346768 -2.4229871271223367 L 2.8916664415781876 -2.354301332484833 L 2.928788724988896 -1.9888058659269356 L 3.182266559564318 -2.2553034970213885 L 3.3829415596068575 -2.1869401709033096 L 3.1539889108151784 -1.5148682367985786 L 2.9694057739835973 -1.577749598086434 M 3.8315008351591295 -1.9104630371522515 L 4.0077024280841105 -1.7821002752206883 L 3.772307928220056 -1.0751593799304586 L 3.61227161904966 -1.191745741684814 L 3.6593622402088943 -1.3294137241601793 L 3.5066003087280615 -1.4407007058347914 L 3.390807231611839 -1.3530824241125583 L 3.229962658253714 -1.4702576058757741 L 3.8315008351591295 -1.9104630371522515 M 3.710852651541136 -1.4527414888396566 L 3.807137009929287 -1.6919031963301787 L 3.60658657132406 -1.5286992699826456 L 3.710852651541136 -1.4527414888396566 M 3.8288951660724058 -1.0094618616507287 L 4.382650549208406 -1.453820923275336 L 4.586680202855761 -1.199561409328384 Q 4.619224810186013 -1.159004677042367 4.6303838745037975 -1.111544427532366 Q 4.641542938821582 -1.0640841780223649 4.633882620329553 -1.0169082358420471 Q 4.626222301837524 -0.9697322936617295 4.6028575789085755 -0.9285456487091059 Q 4.579492855979627 -0.8873590037564825 4.544395683809036 -0.8591954012591481 Q 4.51241826027583 -0.8335352300949102 4.475270354221375 -0.8191118783426523 Q 4.4381224481669195 -0.8046885265903945 4.399159697482201 -0.8029125595072295 Q 4.360196946797482 -0.8011365924240645 4.322230941467742 -0.8116998513578477 L 4.212546017869426 -0.531360382971337 L 4.07861244154877 -0.6982669350714836 L 4.17040651312704 -0.9321960876435462 L 4.120963744298386 -0.993811123231918 L 3.950937443560854 -0.8573741155781653 L 3.8288951660724058 -1.0094618616507287 M 4.253553061387288 -1.1002069548885143 L 4.330533574880002 -1.0042746842888972 Q 4.338043868879291 -0.9949154383767395 4.351947739479424 -0.9919688501233951 Q 4.365851610079558 -0.9890222618700506 4.383804475538003 -0.9938123163406116 Q 4.40175734099645 -0.9986023708111726 4.420475832820765 -1.013622958809751 Q 4.4399742618044264 -1.0292694046416033 4.447523433350814 -1.0462255247450711 Q 4.455072604897201 -1.0631816448485387 4.454268816415393 -1.0785635798398365 Q 4.453465027933586 -1.0939455148311343 4.445954733934296 -1.103304760743292 L 4.372103509607953 -1.1953373455461767 L 4.253553061387288 -1.1002069548885143 M 4.962236674343011 -0.17277691208569979 L 4.879144064407092 -0.359087454390845 L 4.3859690994817075 -0.13913642808988408 L 4.306542339984139 -0.31722738764627284 L 4.799717304909523 -0.5371784139472338 L 4.716217378258232 -0.724402243224463 L 4.87147616351252 -0.7936460848377285 L 5.117495459597299 -0.24202075369896525 L 4.962236674343011 -0.17277691208569979" fill="#0b3b6a" fill-rule="nonzero"></path></g><g><path d=" M -0.3707725008081366 2.0101312801266613 L -0.33766391862234935 2.0672261291556846 L -0.5054979146334884 2.2801480626969077 L -0.23683323651108834 2.241105896653165 L -0.20322300914066793 2.299065819152325 L -0.5275442734866029 2.3437951997992132 L -0.7370091122903824 2.6224732960050448 L -0.06395508712366982 2.529262356695937 L -0.025830053091551175 2.5950079404263273 L -0.7910274174631962 2.690788907004704 L -0.8221294189104508 2.6371543518562275 L -0.5932337634028005 2.3321809449996245 L -0.9721213291157595 2.3784973842853487 L -1.002721685378381 2.3257279026070092 L -0.5390130769712531 1.7100377804764646 L -0.5013896881237676 1.7749182907367185 L -0.9160964432044132 2.3136420671662363 L -0.5706857593650528 2.2693988813674557 L -0.3707725008081366 2.0101312801266613 M -0.171679619246777 3.376008411760526 Q -0.22908602179437504 3.327743466442592 -0.2564705844059147 3.2655254165649668 Q -0.2838551470174543 3.2033073666873415 -0.2843916407270641 3.1355728690181364 Q -0.2849281344366738 3.0678383713489312 -0.26179033027848225 3.003024082656258 Q -0.2386525261202907 2.938209793963585 -0.1948923090320308 2.8861613223204294 Q -0.14920149413105366 2.83181659457537 -0.08855817364176466 2.7985354034904137 Q -0.02791485315247566 2.7652542124054573 0.03941009424047581 2.7558813015162875 Q 0.10673504163342729 2.746508390627118 0.17240979419719427 2.763184027816982 Q 0.23808454676096136 2.779859665006846 0.29242927450602085 2.8255504799078235 Q 0.34983567705361884 2.8738154252257573 0.3765767070609194 2.936798893804017 Q 0.40331773706821994 2.999782362382277 0.40314975512539286 3.0675778030996796 Q 0.4029817731825657 3.1353732438170825 0.38016573532649367 3.1998048231594383 Q 0.35734969747042167 3.264236402501794 0.31423301298640094 3.3155194554443153 Q 0.2685421980854238 3.3698641831893745 0.2078988775961348 3.403145374274331 Q 0.1472555571068458 3.4364265653592874 0.08031331906421157 3.4461212425505767 Q 0.013371081021577469 3.455815919741866 -0.05198190524007007 3.438757573201684 Q -0.1173348915017175 3.421699226661503 -0.171679619246777 3.376008411760526 M -0.14131299998760594 2.9312086046171677 Q -0.17863789103347466 2.975602889253977 -0.19852393004820917 3.0287799092184735 Q -0.21840996906294366 3.0819569291829696 -0.21832691761665451 3.1362454464076763 Q -0.21824386617036537 3.190533963632383 -0.19688760799344363 3.240498053103529 Q -0.17553134981652185 3.2904621425746745 -0.1311370651797127 3.3277870336205435 Q -0.08444652444099965 3.3670425224791294 -0.030913636052122107 3.3787356769185433 Q 0.02261925233675549 3.390428831357957 0.07637633318881298 3.380100411427234 Q 0.13013341404087053 3.3697719914965116 0.17801817867696723 3.3407883872391797 Q 0.22590294331306382 3.3118047829818478 0.2612972365462152 3.2697067544469425 Q 0.29862212759208384 3.225312469810133 0.3181864003046988 3.172518159195954 Q 0.33775067301731376 3.119723848581775 0.3376066785228269 3.0647308557046316 Q 0.3374626840283399 3.009737862827488 0.31616736889961594 2.960478249008779 Q 0.294872053770892 2.91121863519007 0.2504777691340827 2.873893744144201 Q 0.2045526470960043 2.8352817878898544 0.15134152500924636 2.8232059241001233 Q 0.09813040292248831 2.811130060310392 0.044373322070430876 2.821458480241115 Q -0.009383758781626672 2.8317869001718377 -0.05765123276804063 2.86044873812705 Q -0.10591870675445464 2.8891105760822624 -0.14131299998760594 2.9312086046171677 M 0.3876741343077613 3.7604473758832184 L 0.6793740947347664 3.1131366830263154 L 0.9528856550968381 3.2363901874320926 Q 0.9948240943523557 3.255289058107645 1.0216628367191856 3.2882235674886413 Q 1.0485015790860155 3.3211580768696374 1.0611327143431197 3.3624975788274107 Q 1.0737638496002242 3.403837080785184 1.0716669021388372 3.4462175339604886 Q 1.0695699546774504 3.488597987135793 1.0527253090753275 3.5259779003852763 Q 1.0317722133263454 3.572474865646828 0.9955059362419442 3.6054901219147637 Q 0.9592396591575431 3.638505378182699 0.9141379290594343 3.6521832413987627 Q 0.8690361989613256 3.6658611046148266 0.8211658991565349 3.655257595921971 L 0.8672310701425936 3.9765518536080138 L 0.795206359247248 3.944095097447826 L 0.7505929844934066 3.636617217279068 L 0.5591348922399564 3.550339764195024 L 0.45149349839224473 3.789206526911233 L 0.3876741343077613 3.7604473758832184 M 0.5846072831504836 3.4938140417201957 L 0.7961228898304857 3.58913008512733 Q 0.8344145082811758 3.6063855757441385 0.8721268048563661 3.5981525515716433 Q 0.9098391014315563 3.589919527399148 0.9407447779027958 3.56271494760355 Q 0.9716504543740353 3.5355103678079516 0.988905944990844 3.4972187493572617 Q 1.0065722806223387 3.458015425705365 1.0037898722348402 3.416726708074937 Q 1.0010074638473418 3.3754379904445098 0.9806210576385507 3.341572160440062 Q 0.9602346514297595 3.3077063304356136 0.9237664433814832 3.291272529848177 L 0.7177210679087226 3.1984215565291585 L 0.5846072831504836 3.4938140417201957 M 1.179929876454674 4.063910591913841 L 1.3014717266493196 3.3643910577682523 L 1.5970433607953434 3.4157467691181025 Q 1.6423643446977336 3.4236213115250793 1.6765508899707395 3.448845905125309 Q 1.7107374352437454 3.474070498725538 1.7332532050913838 3.510969551669593 Q 1.7557689749390222 3.547868604613648 1.7642783407088365 3.5894389148626167 Q 1.7727877064786508 3.6310092251115855 1.7657690925941711 3.671404015111542 Q 1.7570386216646967 3.721651192916366 1.7301231087427276 3.7626488168005294 Q 1.7032075958207584 3.8036464406846924 1.6629248622739945 3.8281117503700495 Q 1.6226421287272306 3.852577060055406 1.5736388102188716 3.8542125340442976 L 1.6981654749907023 4.153954272480579 L 1.6203316113322492 4.140430601825119 L 1.500647389569832 3.8537100286861743 L 1.2937472456676153 3.8177610307412793 L 1.2488965910887462 4.075893591228807 L 1.179929876454674 4.063910591913841 M 1.3043607593465845 3.756676226351101 L 1.5329361564195094 3.796391309794985 Q 1.5743161851999528 3.8035811093839644 1.6087958585985305 3.786227374272254 Q 1.6432755319971082 3.7688736391605433 1.666444055184114 3.7348373418687815 Q 1.68961257837112 3.70080104457702 1.6968023779600991 3.659421015796577 Q 1.7041633632535775 3.617055748235647 1.6911994852483179 3.57775641151014 Q 1.678235607243058 3.538457074784634 1.6500670252284775 3.5107256668274482 Q 1.6218984432138972 3.4829942588702627 1.5824888919944273 3.4761468306902827 L 1.3598249276044228 3.437458861473395 L 1.3043607593465845 3.756676226351101 M 1.941606399178439 3.449751032109129 L 2.200490496138047 3.814068235026324 L 2.406398594425414 3.416221713036147 L 2.482201613392732 3.410753412071455 L 2.2400046662116844 3.875384059765062 L 2.2589998169311416 4.138699809862061 L 2.1891812468296648 4.143736402855857 L 2.1700421934532415 3.878425836470244 L 1.8648059720668142 3.4552912844023043 L 1.941606399178439 3.449751032109129 M 3.1121466440879706 3.9541474669109955 L 2.827665926182971 3.3036317321741206 L 2.8918012803119586 3.2755843374510927 L 3.1514400200337045 3.8692944728165783 L 3.527089951360632 3.705016875153128 L 3.551931929543886 3.761822474524517 L 3.1121466440879706 3.9541474669109955 M 4.140195210628056 3.273051994701578 L 4.177544031626857 3.3225400293160128 L 3.7968054427383833 3.6098849908713078 L 3.369101202268238 3.0431671751253617 L 3.7426560441965515 2.76124381661828 L 3.780004865195353 2.810731851232715 L 3.4623236107349493 3.0504871860314724 L 3.616538097439678 3.2548248773426867 L 3.8935114524591756 3.045791959817137 L 3.929053072441906 3.092885412111518 L 3.6520797174224082 3.3019183296370684 L 3.815330209207492 3.518228932548549 L 4.140195210628056 3.273051994701578 M 4.217472095744463 2.412564087759644 Q 4.194816503172017 2.4134150432175447 4.171705355522895 2.4203522511818827 Q 4.1485942078737725 2.4272894591462206 4.125027505147974 2.4403129196169955 Q 4.101460802422175 2.4533363800877708 4.078775132502003 2.4716013843383315 Q 4.056089462581832 2.4898663885888928 4.035833111092189 2.5146389585873417 Q 3.976963089575416 2.586634240145335 3.976909181611213 2.6427813424207987 Q 3.97685527364701 2.6989284446962625 4.024077985206554 2.737542114723393 Q 4.056591983329518 2.7641285760535483 4.088148136001408 2.7634509120155237 Q 4.119704288673296 2.762773247977499 4.159168914158328 2.7382061289904014 Q 4.198633539643359 2.7136390100033037 4.254064571558073 2.6711254745014203 Q 4.314559691345199 2.622418796499925 4.366406437341955 2.5937671834642195 Q 4.418253183338712 2.565115570428514 4.4662738683271845 2.565629197956892 Q 4.514294553315657 2.566142825485271 4.563839693312555 2.6066555284645556 Q 4.60177269112268 2.6376730666830706 4.61761462367396 2.6751701755454973 Q 4.633456556225241 2.712667284407924 4.630513610266332 2.7541804036485082 Q 4.627570664307425 2.795693522889092 4.606721790400205 2.8393578613909045 Q 4.585872916492986 2.883022199892717 4.550424301386111 2.926374197390003 Q 4.515608697263288 2.9689520520748376 4.474739000225504 3.00076663778705 Q 4.433869303187719 3.0325812234992626 4.38796559562525 3.053174902918427 Q 4.342061888062781 3.0737685823375913 4.290279461248976 3.0818047675814046 L 4.268308705381035 3.0186281430546753 Q 4.29581877032704 3.016579649299123 4.3261410606223025 3.0071425569900554 Q 4.356463350917564 2.9977054646809878 4.387874207273554 2.9814079770530313 Q 4.419285063629543 2.965110489425075 4.448829046624854 2.9408277163385272 Q 4.478373029620165 2.9165449432519797 4.503693468982219 2.885579230753918 Q 4.557499402626581 2.8197770916955376 4.563568997183022 2.7633819675984985 Q 4.569638591739461 2.7069868435014595 4.522415880179918 2.6683731734743286 Q 4.4883535964320505 2.6405206901760705 4.452646548284853 2.6423253265975473 Q 4.416939500137655 2.644129963019024 4.373394545091515 2.6705276312878254 Q 4.3298495900453755 2.6969252995566264 4.273152536162558 2.740987120683413 Q 4.2131492955310845 2.787512502075954 4.164608736282985 2.8137005548459046 Q 4.116068177034885 2.839888607615855 4.073218469911998 2.837790370383599 Q 4.030368762789111 2.8356921331513423 3.9862426224793737 2.7996105070604167 Q 3.9351491968575725 2.7578317821130294 3.9204985558726957 2.7038701409340193 Q 3.9058479148878185 2.6499084997550093 3.923737184886133 2.5909066013200652 Q 3.9416264548844473 2.5319047028851216 3.9884692677042453 2.474618134763708 Q 4.018220783954657 2.438233422578486 4.051212085527026 2.412894243022686 Q 4.084203387099394 2.3875550634668867 4.119976836673292 2.3722413341502326 Q 4.155750286247191 2.356927604833578 4.195642471704922 2.350794617029418 L 4.217472095744463 2.412564087759644 M 4.527927633927279 1.8344570480140678 Q 4.506118966345852 1.840652370307768 4.485309953371179 1.8528685472473798 Q 4.464500940396507 1.8650847241869917 4.444691582028588 1.883321755772515 Q 4.42488222366067 1.9015587873580384 4.407170871832847 1.9246792980883636 Q 4.389459520005024 1.9477998088186887 4.375650366091966 1.976666870813382 Q 4.33551751253214 2.0605617697354592 4.348770090831939 2.1151224622567946 Q 4.362022669131738 2.16968315477813 4.417050506059122 2.1960068544248976 Q 4.454938524927157 2.214131368935787 4.485435310648731 2.20599527278023 Q 4.515932096370303 2.1978591766246733 4.548451118310771 2.1646400072787166 Q 4.580970140251239 2.131420837932759 4.624748123313834 2.076982908150565 Q 4.671978394854695 2.015328212869698 4.715558983264115 1.9752067433815466 Q 4.759139571673536 1.935085273893395 4.80591424174206 1.9242050055152353 Q 4.852688911810583 1.9133247371370756 4.910423035799969 1.9409430449631926 Q 4.954625724479343 1.9620883118925632 4.978901984087495 1.994763428104103 Q 5.003178243695647 2.027438544315643 5.010156314159042 2.068466663119798 Q 5.017134384622437 2.1094947819239533 5.007226290216976 2.1568559439161645 Q 4.9973181958115145 2.2042171059083757 4.973152176463662 2.254734464399089 Q 4.949417693175593 2.304349727202468 4.917251021752205 2.344942894725338 Q 4.885084350328817 2.385536062248208 4.8453680746735595 2.416420806833126 Q 4.805651799018302 2.447305551418044 4.757248543630067 2.4673835211316693 L 4.720932851544427 2.4112126166673384 Q 4.747173950426989 2.4027035198036506 4.774396330539588 2.386349865135499 Q 4.801618710652187 2.3699962104673475 4.828272972217816 2.34671960546595 Q 4.854927233783444 2.323443000464553 4.877875553680315 2.2928509326378945 Q 4.900823873577187 2.2622588648112365 4.91808531596851 2.22617503731787 Q 4.954765881050071 2.149496903894466 4.9472988775824085 2.093269740892818 Q 4.939831874114745 2.0370425778911696 4.884804037187361 2.0107188782444023 Q 4.845111826944658 1.991731291613947 4.810849425795508 2.0019458825257153 Q 4.77658702464636 2.012160473437484 4.740537667092092 2.0481249534132115 Q 4.7044883095378225 2.084089433388939 4.659847254355661 2.1403315545458015 Q 4.612577959247033 2.1997505223922174 4.5716256107640785 2.2366951451908155 Q 4.530673262281124 2.273639767989413 4.4885467915436275 2.281755213953918 Q 4.44642032080613 2.2898706599184235 4.395000866628083 2.265273104510788 Q 4.335462551264028 2.2367917245651054 4.308442119433273 2.187838724006615 Q 4.281421687602519 2.1388857234481247 4.284819994357801 2.077325171865175 Q 4.288218301113083 2.0157646202822255 4.320151969537031 1.9490095394194973 Q 4.340434164346835 1.9066110421147915 4.366481283797724 1.8741757593456971 Q 4.392528403248614 1.8417404765766028 4.423654119683144 1.8183858244396693 Q 4.454779836117676 1.795031172302736 4.49208250146919 1.7796197752968541 L 4.527927633927279 1.8344570480140678" fill="#164473" fill-rule="nonzero"></path></g><g clip-path="url(#SvgjsClipPath1001)"><g clip-path="url(#SvgjsClipPath1000732ca4d3-b891-4313-a60f-889ad12b3dd6)"><path d=" M 1.7771088425675037 1.4083587577347472 C 1.7327062219106968 1.5154621960290344 1.6604421490610948 1.5655375087539238 1.5610947366475045 1.5664913242343979 C 1.492997331423131 1.5670184327893968 1.397038474005962 1.4985696218616906 1.3649601533731759 1.3780625660260044 C 1.32422219219398 1.3755525252879148 1.2956077277797575 1.3739711996229185 1.2839611387550214 1.373368789845777 C 1.2069028880956678 1.3694782267017378 0.08541668631719228 1.4844380925062457 0.08541668631719228 1.4844380925062457 C 0.08541668631719228 1.4844380925062457 1.5820284764031727 1.6586349197296704 1.77058273664847 1.663880904872278 C 1.9591369968937684 1.669126890014886 3.851908516672446 1.5346389072680398 3.933233836586551 1.538654972448983 C 4.014559156500656 1.5426710376299264 2.007630983953661 1.4242975164216167 1.7771088425675037 1.4083587577347472 Z" fill="#13232f" transform="matrix(1,0,0,1,0,0)" fill-rule="nonzero"></path></g><g clip-path="url(#SvgjsClipPath1000732ca4d3-b891-4313-a60f-889ad12b3dd6)"><path d=" M 1.58222927966222 0.9701809460864291 C 1.478213191475783 0.9649098605364407 1.3878768253119347 1.0804219353033286 1.3803969039124278 1.2281629331472879 C 1.3753768224362481 1.326280425599214 1.4083085569199851 1.4139059477659253 1.4614461193453439 1.4632784490841495 C 1.4163444660454798 1.4029221757490185 1.3947206190490649 1.328228912176006 1.4006027318540495 1.2531127380838996 C 1.4079320508092714 1.10873519482898 1.496210183567886 0.9958586628370866 1.5978668334605188 1.0010042463501705 C 1.6558487745103905 1.0039409940137352 1.7055977819393282 1.04465385478555 1.7363457809809273 1.1058737483875578 C 1.7070536055674204 1.0276608789886832 1.6501258816275461 0.9736197018976119 1.58222927966222 0.9701809460864291 Z" fill="#13232f" transform="matrix(1,0,0,1,0,0)" fill-rule="nonzero"></path></g><g clip-path="url(#SvgjsClipPath1000732ca4d3-b891-4313-a60f-889ad12b3dd6)"><path d=" M 3.3826564006865767 0.7395835034781288 C 3.3738210572885006 0.7418676405497905 3.2847648119010784 0.7830825094692232 3.2469635983854475 0.7643325051556932 C 3.2309244380690543 0.7506025823183425 3.191014790333428 0.7120985573960467 3.1980680048074603 0.674523247546844 C 3.248268819569254 0.6255774531540949 3.2730931224689614 0.6027611828448596 3.307003772840553 0.6002762425141507 C 3.291617223116063 0.565135672180895 3.2284143973309645 0.5140563431607698 3.033409332388776 0.4662902679149228 C 2.882022894736825 0.4318587849166467 2.728083551717085 0.4098146844275076 2.573118061837886 0.4003765981326869 C 2.593374090594272 0.4014057148353042 2.6246993990056313 0.40208342583458834 2.624975503486821 0.3963103321369821 C 2.618254020508197 0.373644323700162 2.6069037907112853 0.352619048624557 2.59164216248499 0.33456332997997573 C 2.577435331907402 0.31882537455215315 2.4535899218900568 0.3039659333826622 2.4535899218900568 0.3039659333826622 C 2.4535899218900568 0.3039659333826622 2.465211410507412 0.3153364179262085 2.498770655175671 0.34274606278614794 C 2.5193803739981493 0.35997820190946017 2.5385302640328358 0.37888462556492497 2.5560246844114975 0.3992721802079281 C 2.5735191047901593 0.41965973485093133 2.557104001928876 0.3992721802079278 2.5590618337045856 0.399472983466975 C 2.5526863302298377 0.39912157776364243 2.5469132365322316 0.39879527246769086 2.5417676530191478 0.39854426839388174 C 2.3993479415399386 0.3913404514755644 1.3946790357121575 0.44317279271711657 1.3339862506651485 0.39472900647198544 C 1.2935494943745236 0.3623996817653902 1.1739209527971686 0.10245986292882141 1.1739209527971686 0.10245986292882141 C 1.13534162665273 0.03114960555969317 1.5593628085382223 0.03576808051777822 1.7526359453711287 0.049749007428937814 C 1.87356970813229 0.05848394919748994 1.9616219372244768 0.06852411214984873 2.021712312494344 0.07685744740030652 C 2.1253518945700676 0.09289660771669966 2.254970398285019 0.17858939851508185 2.2970386810554024 0.20313759693359904 C 2.227277877601861 0.14864588317297386 2.15133524193914 0.10256974888859137 2.070783608923998 0.06586346896747383 C 2.0241972528250534 0.047891577282751556 1.7373246968687823 -0.0062751018452240626 1.134538413616542 0.0006024097771417016 C 0.6493726393511849 0.0061244994009390305 0.3845382410753413 0.236546239157573 0.2814006671472358 0.35298702899755396 C 0.24770660554673493 0.3864943924412554 0.20915439276905592 0.4147316035999724 0.16704321111986895 0.4367470884276072 C 0.12261549005568156 0.44759046441615447 0.06992973496317889 0.5195784327845671 0.09003516127527735 0.5177963038605232 C 0.1101405875873758 0.5160141749364796 1.3195535164211334 0.6978917268184589 1.3701559377010215 0.7003013659270251 C 1.3980640997864766 0.6667612814517627 1.4371193604624213 0.6443956176834256 1.480171023251493 0.6372993434009737 C 1.537901960227556 0.6291668114095631 1.5960345037217134 0.6536146081985567 1.647264435186124 0.7017320891477362 C 1.6832427360537217 0.7020938091097174 1.7189390726144713 0.6953554325546416 1.7523096400751779 0.6819027673168276 C 1.7952507815711054 0.6557969467027442 1.8413588888270866 0.6352988309632576 1.8895084668191613 0.6209087773812478 C 1.8819783446048917 0.6186246403095864 1.4700555590769915 0.503288268394365 1.2720384452490954 0.4766316357558524 C 1.3732934886236339 0.4863203930048786 1.641390939858994 0.5139308411238652 1.780622899600829 0.5467370735706976 C 1.8682157880102064 0.5666897074534036 1.9543567114522198 0.592552110869989 2.038454284217396 0.6241467299333816 C 2.056024569384031 0.6236698221931467 2.1109191603260524 0.6142320690179295 2.145532622104309 0.6138806633145969 C 2.2469633683305137 0.6382280584740669 2.3512304605907595 0.6610192283759214 2.418650154815849 0.679141722504929 C 2.4490969489688768 0.6916919261953774 2.4495738567091143 0.7657130275616426 2.432028671949867 0.8054218720382215 C 2.417997544223946 0.8363957747462484 2.106200283738444 0.8238957718705616 2.003163111439862 0.813328500363204 C 1.879367902237278 0.8006276942284701 1.762475305064441 0.6938756616375155 1.762475305064441 0.6938756616375155 C 1.762475305064441 0.6938756616375155 1.7421439750859145 0.736370651333374 1.7912152715155683 0.7839108229127927 C 1.837632773744774 0.8321485770372495 1.900169830470126 0.8616303323506299 1.9669181231818467 0.8667421672697527 C 1.9383287591750054 0.8753265065940196 1.7610947826584917 0.8461096324026555 1.7610947826584917 0.8461096324026555 C 1.8141138492466542 0.9869971322091865 1.8443866087012524 1.1354209217769622 1.850778538230436 1.285818568901208 L 1.8507785382304363 1.2863958782709688 C 1.8075556367205319 0.9999751296475538 1.6067774780807371 0.5858184078627541 1.3697543311829272 0.8356427625248214 C 1.3094627313068268 0.9057525630429687 1.2795112693244117 0.9969523719131508 1.2864962799004918 1.0891568770718805 C 1.2915163613766714 1.1760795878319268 1.2990464835909403 1.2453065113884405 1.3050705813623558 1.2905625458961978 C 1.2612201696679288 1.1625504682536232 1.2058235705782894 0.9168425804020232 1.3133035149832901 0.7816266858411313 L 0.061621500120102 0.556400730412343 C 0.061621500120102 0.556400730412343 0.03830322166324874 0.5927963211146434 0.04154117421538445 0.677685898876837 C 0.04492972921180553 0.7669931483380683 -0.05886045530820333 0.8614459813123836 0.04964860579941416 1.1115213400482598 C 0.05010041313227031 1.1125504567508766 0.04648595446942114 1.012349630486336 0.04663655691370653 0.9947793453197081 C 0.04698796261703909 0.9458586513343402 0.05193274287107578 0.8402612374829066 0.09297190893884229 0.7638555974154563 C 0.12331830146234671 0.7229419333845942 0.14375003307039683 0.6779871037654078 0.18215365636316913 0.676004171582317 C 0.3041667366417092 0.6701055758478062 0.3834589235579626 0.8393827232245752 0.3920181624748485 0.9486447965536197 C 0.514156744790293 0.9787652854106961 1.0433737340091243 1.0923697292166354 1.217821565306358 1.1164661203022965 C 1.2027029668386762 1.1399422308505083 1.1749489443727588 1.1520221121949317 1.147465123417704 1.1470886173069907 C 1.064633779060744 1.130020340287981 0.4030121409076815 1.0397341749388946 0.4030121409076815 1.0397341749388946 C 0.4030121409076815 1.0397341749388946 0.3921938653265149 1.1840113165642903 0.39226916654865757 1.2312251828477574 C 0.3922919291521191 1.2338453677416608 0.3924847711362701 1.2364613111788396 0.3928464759184181 1.2390565099505966 C 0.3922440661412767 1.2383787989513129 0.3915914555493733 1.2377763891741713 0.39101414617961266 1.2371237785822682 C 0.38832840258985674 1.2341619305113223 0.38599406470343334 1.231074580403472 0.3834840239653436 1.227911929073479 C 0.37720892212011936 1.1960595121071207 0.3635543005049114 1.1199801773356222 0.3490964658535148 1.0517321696669635 L 0.34864465852065857 1.047615702856496 C 0.3465428584492782 1.0294976131715237 0.3429923340751965 1.0115771178082507 0.3380271861985392 0.9940263330982817 C 0.33752517805092125 0.9923948066185231 0.3367721658294943 0.990160870361623 0.33601915360806744 0.988027335734247 C 0.33526614138664057 0.9858938011068709 0.3337601169437867 0.9830072542580675 0.33263059861164634 0.9806227155568823 C 0.32902346745280453 0.9658740136063141 0.3245050875418188 0.9513632239478419 0.3191014790333432 0.9371739103805503 C 0.29487958591077734 0.8787150615904408 0.28295689240485133 0.8455825238476568 0.23719884974947616 0.8175202683958138 C 0.19869482482718026 0.7939007850503899 0.14349902899658787 0.7895333141661138 0.1177711114311685 0.8168425573965296 C 0.09204319386574915 0.8441518006269455 0.0544929844239273 0.9094881610394204 0.061395596453673956 1.0271086700263032 C 0.06307732374819407 1.0557733352552878 0.06440764533938159 1.0778365933430962 0.06548696285676016 1.0948797699547252 C 0.06109649739089723 1.11977942585411 0.05826301966160121 1.1449286364691635 0.05700302516201707 1.1701809920974156 C 0.04849398705989292 1.338780428474901 0.10881026599618827 1.4789160028824484 0.19169181116790998 1.4830826705076776 C 0.2037902075255023 1.4836850802848192 0.381927798707728 1.4910143992400409 0.3983685655422154 1.4918427126836105 C 0.4611195839944579 1.4950304644209844 0.5188505209705208 1.4192774349454373 0.5468374752002209 1.3091619477654424 L 1.320607733531131 1.357932039306525 C 1.353238263126297 1.5064762501866733 1.4534641897982186 1.616466235329764 1.5775355034819922 1.62279153798975 C 1.6006529786797985 1.6239712571366516 1.7685747040579989 1.6368226657156713 1.7999251128767393 1.6384290917880489 C 1.9189763450843333 1.6444280891520833 2.025828779304812 1.5530877066929991 2.076205296918272 1.418122816205916 C 2.2770085559654474 1.4116218106942637 2.4986451531387672 1.3977914862273895 2.566115048178619 1.3930224088250194 C 2.613805822202323 1.3897342554581216 2.664006636964117 1.386496302905986 2.7150859659842417 1.3832332499464692 C 2.785118409101095 1.484799750685012 2.901627533878203 1.5442249812103421 3.0249630765119866 1.541285409061586 C 3.1482986191457707 1.53834583691283 3.2618443847067202 1.4734374915133803 3.326958596708367 1.3686499132581682 C 3.332756790813354 1.3600404735265206 3.0475157613368418 1.3714109580700666 3.0526864452573066 1.3623497110055631 C 3.0539039554139213 1.361114617743755 3.055442978267729 1.3602451133065754 3.057129217363725 1.359839670267473 C 3.258861191483994 1.343574606284652 3.419177493425783 1.322891870602793 3.430949584487423 1.290211140192865 C 3.5141825353624765 1.0584088780302818 3.4457086240273895 0.7234690419395929 3.3826564006865767 0.7395835034781288 Z M 0.43925712916569654 0.2803213496298573 C 0.43925712916569654 0.2803213496298573 0.7150604054669922 0.06591366978223556 0.9824048444809256 0.06799700359485002 C 1.0237957111632492 0.06398395928528457 1.0646413956342 0.07981201116598124 1.0925203316609207 0.1106676961423748 C 1.1319530716563095 0.161044213755835 1.1909641294087983 0.3404619257144864 1.2177713644915964 0.42633041936453486 C 1.1922442501852242 0.3742721744565546 1.1600404275155334 0.30258541097671293 1.155020346039354 0.293298260245781 C 1.1471639185291331 0.2785894215205754 1.0606679146945623 0.2642068880913214 0.9503265238481394 0.2958083009838707 C 0.8399851330017165 0.32740971387642 0.8659891550483256 0.3802209710058271 0.8656879501597549 0.3858936630739099 C 0.8680748283850016 0.3916212105256744 0.8720452974782613 0.3965494682159923 0.877133735925444 0.4001004936514976 C 0.8800202827742472 0.4017069197238749 1.1120484486032585 0.3368474670516372 1.108484190755171 0.4075051138288621 C 1.1076809777189824 0.42351917373787445 0.8946789206846908 0.4190011004093129 0.8981176764958738 0.4212852374809746 C 0.9105615066447158 0.4297388681417101 0.9247373313077886 0.4353045730457235 0.9396086498964964 0.4375754018711767 C 1.0149098720391874 0.448443878267105 1.1205574867053825 0.4375754018711767 1.1323044773596422 0.4451055240854458 C 1.143298455792475 0.45228424059638234 1.1562502660010179 0.46149609010517145 1.1697040843571787 0.4688003086530125 C 1.028614694469157 0.46036657177303114 0.725853580640778 0.44322299353187855 0.4989458979174696 0.43599407620618025 C 0.3639559070230057 0.41942780733478824 0.38679727773962197 0.31199806374454925 0.43925712916569654 0.2803213496298573 Z M 0.31202316415192993 1.191892844481892 C 0.305170752936945 1.3274350443387355 0.24844383225611796 1.4349149887437362 0.18534140810054303 1.431727237006362 C 0.1222389839449681 1.428539485268988 0.07665664414125926 1.3159892585730464 0.08350905535624412 1.1803466570866792 C 0.09036146657122897 1.044704055600312 0.14706328684467518 0.9372994124174541 0.210190811407631 0.9404871641548279 C 0.2733183359705868 0.943674915892202 0.3187751737373912 1.0562502429955247 0.31202316415192993 1.191892844481892 Z M 1.075376753419768 1.2999500982566532 C 1.0294681083201074 1.2976910615923727 0.6192521504941085 1.2833336285704993 0.476907740237042 1.2783888483164625 C 0.4568274143323244 1.2723396501376665 0.4368725904645114 1.2658386446260141 0.4208083297407373 1.260015350113646 C 0.47205143585914777 1.2415775882930813 0.5244373550866089 1.2264856141238383 0.5776356750565821 1.2148346168280315 C 0.6112953213543644 1.2104420455363747 1.046385782894832 1.191340635519512 1.1202060810020498 1.262274386777927 C 1.1443777733098537 1.2853667615683522 1.1309992561758355 1.3027111430685518 1.075376753419768 1.2999500982566532 Z M 1.7973899717312687 1.2632031018510201 C 1.7888307328143829 1.4324300484130272 1.6841871344434232 1.5646840949029734 1.5636549782003564 1.5585846959094154 C 1.4431228219572894 1.5524852969158573 1.3522844476458231 1.4103667903252188 1.3608436865627092 1.2411147433558307 C 1.369402925479595 1.0718626963864426 1.4740214234431734 0.9396086498964965 1.5946037805010023 0.9457080488900546 C 1.7151861375588313 0.9518074478836126 1.8059492106481545 1.0939259544742512 1.7973899717312687 1.2632031018510201 Z M 3.3468632197614174 0.8646839338645191 C 3.3498109366368944 0.8690013150929259 3.3521268301922023 0.8737176238661449 3.353740731383783 0.8786899611830596 C 3.360015833229008 0.8962602463496876 3.361873263375195 0.9442020244472007 3.345733701429278 0.9519329499205169 C 3.339001328094529 0.9553288428572224 3.331608532693198 0.9572134488691495 3.324072049859564 0.9574550395443141 C 3.3228421298978996 0.9534640747707516 3.321562009121474 0.9491217042938563 3.320407390381953 0.9442271248545816 C 3.3087859017645975 0.8968375557194481 3.3255529738950367 0.8701809230809355 3.3468632197614174 0.8646839338645191 Z M 3.1783641850134567 0.721034302423646 C 3.1826312542682094 0.7696788919278241 3.1518079540044672 0.7935242789396763 3.1219384692212 0.8140564121772501 C 2.954242647509428 0.8573546149092973 2.7052717066983107 0.8588355389447702 2.5743981826143143 0.8286146484581703 C 2.55609998563364 0.8115714718465412 2.5261551996282305 0.7778867251413776 2.5323298998439308 0.744904789842879 C 2.5387932443068175 0.7197329012919732 2.555507949768362 0.6984207414414957 2.5784142477952576 0.6861447361641992 C 2.946085015110636 0.6903867050115707 3.0465368454489856 0.6807983493920681 3.1519585564487524 0.6593124006740203 C 3.166830147444286 0.6767237237571573 3.176041330648493 0.6982544267031119 3.1783641850134567 0.721034302423646 Z M 2.2241219976138975 0.4324800191728546 C 2.3728878851990483 0.41561329026166527 2.523041896547544 0.4148895347983784 2.671963466103862 0.4303213841380973 C 2.9505779880318164 0.4624750059930265 3.116943488152402 0.48960854637177603 3.141341084126634 0.5181728099712368 C 3.141341084126634 0.5181728099712368 3.1647095633982487 0.5686748296216015 2.9718631334908174 0.5848645923822801 C 2.908861110964766 0.5901607783396493 2.663881134927212 0.5839358773091868 2.5691772978790874 0.5771587673163447 C 2.6513309312367634 0.5746487265782549 2.8006281543383387 0.5385543407645252 2.783961483837423 0.5081075466114972 C 2.7648600738205604 0.4733936832037166 2.2241219976138975 0.4324800191728546 2.2241219976138975 0.4324800191728546 Z M 2.2584342545035834 0.9474148765919556 C 2.263146768897326 0.9162334521101945 2.291741818776815 0.8944098784666102 2.3230616834928135 0.8980916034420231 C 2.3543815482088117 0.901773328417436 2.377136192510388 0.9296331813764178 2.3744892615167354 0.9610574201251584 C 2.371842330523082 0.9924816588738992 2.3447479772771995 1.0161426239086286 2.3132535442234627 1.014533365928474 C 2.2796215499094408 1.0110623656966768 2.2551191168754445 0.9810625919178736 2.2584342545035834 0.9474148765919554 Z M 2.0095888157293715 1.300201102330462 C 1.9868478466422785 1.2916418634135762 1.9895084898246538 1.109262303383979 1.9976159214086833 1.0966869992861494 C 2.005723352992713 1.08411169518832 2.099297671708697 1.0453315657848343 2.130196273194581 1.0394580704577046 C 2.161094874680465 1.0335845751305743 2.349624034518382 1.0793175173785692 2.349624034518382 1.0793175173785692 C 2.349624034518382 1.0793175173785692 2.1383288051859917 1.0809992446730892 2.126054705976733 1.0850153098540325 C 2.1137806067674747 1.089031375034976 2.0418930400285857 1.118750257373958 2.031601873002418 1.1395333946853405 C 2.0213107059762496 1.1603165319967232 2.0420938432876325 1.2791920613526513 2.0567022803833144 1.285341661160971 C 2.1199180442307783 1.3034520845659852 2.184176521188403 1.3177019424877126 2.2491220033652684 1.3280123537084954 C 2.3140674855421337 1.3383227649292782 2.032279584001702 1.30881054206211 2.0095888157293715 1.300201102330462 Z M 2.5404624318353415 1.3059741960280682 C 2.507086095722851 1.3057535793537098 2.4738023339522783 1.302434446331903 2.441039718199609 1.296059535112614 L 2.974097069747717 1.2381277948775038 L 2.4365969460931898 1.2331077134013244 L 3.017068967183813 1.1674450476928981 L 2.4623499640659903 1.1665916338419478 L 3.1069535260148053 1.0818275581166588 L 2.5237957613344264 1.0898596884785459 L 3.158359160330882 1.0089861758972958 L 2.5290417464770334 1.0178466197027525 L 3.2269585737028734 0.9425453975600615 L 2.5743479817995527 0.9425453975600615 C 2.57866247144541 0.9390179572838651 2.5837289127396112 0.9365276725799355 2.5891572221542822 0.9352662794196015 C 2.617495582087315 0.9304972020172312 3.2265067663700173 0.9047943848591926 3.2476413093847327 0.9170684840684512 C 3.2868983465284556 0.939784352748163 3.3246995600440865 1.2284390376284777 3.261521834666369 1.2589109321888867 C 3.213228650865522 1.2821037086088354 2.610969476168281 1.311722189318294 2.540462431835342 1.3060243968428302 Z M 3.4127015883215104 1.2093125272042342 C 3.3998746695422994 1.2184520827870429 3.3837471439190665 1.2216593130951192 3.3683993692942273 1.2181227701949289 C 3.397751182572737 1.1955225101884124 3.4153311711833054 1.1608790488970702 3.416240745762217 1.12384564007228 C 3.419428497499591 1.1001508555047133 3.444077097547632 0.9709841591226177 3.344654383911899 1.0225654962903608 C 3.3453069945038028 1.0106428027844345 3.4164415490212647 0.9678215077926247 3.4255529969005303 0.9709339583078558 C 3.4299485122525457 0.9714549150889852 3.433792166334082 0.9741398205135874 3.4357939631119363 0.9780875744114113 C 3.4548702727214176 1.014056458188237 3.422817052496012 1.1694028794686082 3.4127015883215104 1.209362728018996 Z" fill="#13232f" transform="matrix(1,0,0,1,0,0)" fill-rule="nonzero"></path></g><g clip-path="url(#SvgjsClipPath1000732ca4d3-b891-4313-a60f-889ad12b3dd6)"><path d=" M 2.2138559309951105 0.7995985775258534 C 2.2739190381228704 0.8008467191786944 2.3340047011938987 0.7987014012224627 2.3938258519161395 0.793172873236344 C 2.43883088235009 0.7802963642499436 2.4152867002268086 0.7460343081750194 2.4152867002268086 0.7460343081750194 C 2.410969430157295 0.7246236606791142 2.3231180043241553 0.6881527687546709 2.2674202003459447 0.6753264605830327 C 2.235906171872482 0.6675642478107665 2.20327493975613 0.665389398703298 2.1710095355959202 0.6689007562935231 C 2.13874413143571 0.6724121138837481 2.3573800603990795 0.733182899596 2.350979456516951 0.7567521821266623 C 2.344578852634822 0.7803214646573247 2.2138559309951105 0.7995985775258534 2.2138559309951105 0.7995985775258534 Z" fill="#13232f" transform="matrix(1,0,0,1,0,0)" fill-rule="nonzero"></path></g><g clip-path="url(#SvgjsClipPath1000732ca4d3-b891-4313-a60f-889ad12b3dd6)"><path d=" M 0.21267575173833983 1.0012301500165988 C 0.2408384088197062 1.000878744313266 0.2666165271998874 1.0217873836615532 0.2861697445496061 1.0560494397364775 C 0.2660894186448885 1.0043928013465917 0.23413660004900672 0.9709841591226177 0.19856932279027573 0.9714359664554739 C 0.13923195974183533 0.9721387778621389 0.09226909753217716 1.0664661087995497 0.09372492116026919 1.1822793884550082 C 0.09317106730778033 1.2355251017808169 0.10572176560876798 1.288089770901303 0.1302711143068529 1.3353416726637135 C 0.11556799886625521 1.295868883144167 0.10800371615014653 1.254095344324308 0.10793175173785688 1.2119731703866092 C 0.10637552648024126 1.0962602923606743 0.15333838868989944 1.0019329614232637 0.21267575173833983 1.0012301500165988 Z" fill="#13232f" transform="matrix(1,0,0,1,0,0)" fill-rule="nonzero"></path></g></g><g transform="matrix(-0.022059186241756634,-0.9997566665455907,0.9997566665455907,-0.022059186241756634,-1.8942291667746194,-0.0955569043232718)"><g clip-path="url(#SvgjsClipPath1002)"><path d=" M -0.9938504541752529 1.0767568919638193 C -0.8835840090028391 1.0767568919638193 -0.7922474733131839 0.9856157617914054 -0.7922474733131839 0.8751539111017502 C -0.7922474733131839 0.7648879100327848 -0.8835840090028391 0.6735515963948537 -0.9938504541752529 0.6735515963948537 C -1.104312526916632 0.6735515963948537 -1.1954534350373218 0.7648879100327848 -1.1954534350373218 0.8751539111017502 C -1.1954534350373218 0.9856157617914054 -1.104117343451115 1.0767568919638193 -0.9938504541752529 1.0767568919638193 Z M -0.9938504541752529 1.037140643860371 L -0.9938504541752529 0.7133648043776124 C -0.9042703476235288 0.7133648043776124 -0.8320613474511149 0.7853806195500261 -0.8318659419338736 0.8751539111017502 C -0.8318659419338736 0.9649294231707157 -0.9040749421062874 1.037140643860371 -0.9938504541752529 1.037140643860371 Z" fill="#0b3b6a" transform="matrix(1,0,0,1,0,0)" fill-rule="nonzero"></path></g></g><g transform="matrix(0.022059186241756634,-0.9997566665455907,-0.9997566665455907,-0.022059186241756634,5.699208485528011,5.826346131871725)"><g clip-path="url(#SvgjsClipPath1003)"><path d=" M 4.92949392987037 1.0767568919638193 C 5.039760375042784 1.0767568919638193 5.131096910732438 0.9856157617914054 5.131096910732438 0.8751539111017502 C 5.131096910732438 0.7648879100327848 5.039760375042784 0.6735515963948537 4.92949392987037 0.6735515963948537 C 4.819031857128991 0.6735515963948537 4.727890949008301 0.7648879100327848 4.727890949008301 0.8751539111017502 C 4.727890949008301 0.9856157617914054 4.819227040594508 1.0767568919638193 4.92949392987037 1.0767568919638193 Z M 4.92949392987037 1.037140643860371 L 4.92949392987037 0.7133648043776124 C 5.019074036422094 0.7133648043776124 5.091283036594508 0.7853806195500261 5.091478442111749 0.8751539111017502 C 5.091478442111749 0.9649294231707157 5.019269441939335 1.037140643860371 4.92949392987037 1.037140643860371 Z" fill="#0b3b6a" transform="matrix(1,0,0,1,0,0)" fill-rule="nonzero"></path></g></g></g><defs><clipPath id="SvgjsClipPath1001"><path d=" M 0 0 h 3.9356434756951177 v 1.6640817081313253 h -3.9356434756951177 Z"></path></clipPath><clipPath id="SvgjsClipPath1000732ca4d3-b891-4313-a60f-889ad12b3dd6"><path d=" M 0 1.747776801372999e-16 L 3.9356434756951177 1.747776801372999e-16 L 3.9356434756951177 1.6640817081313253 L 0 1.6640817081313253 Z"></path></clipPath><clipPath id="SvgjsClipPath1002"><path d=" M -1.3047228679683562 0.5566939898948537 h 0.6217448275862067 v 0.6439499999999999 h -0.6217448275862067 Z"></path></clipPath><clipPath id="SvgjsClipPath1003"><path d=" M 4.618621516077266 0.5566939898948537 h 0.6217448275862067 v 0.6439499999999999 h -0.6217448275862067 Z"></path></clipPath></defs></svg>